<svg width="47" height="46" viewBox="0 0 47 46" fill="none" xmlns="http://www.w3.org/2000/svg">
<path d="M23.038 46C35.7598 46 46.073 35.7025 46.073 23C46.073 10.2974 35.7598 0 23.038 0C10.3161 0 0.00292969 10.2974 0.00292969 23C0.00292969 35.7025 10.3161 46 23.038 46Z" fill="#E0E0E0"/>
<path d="M23.038 45.3009C35.5665 45.3009 45.7229 35.1599 45.7229 22.6504C45.7229 10.1409 35.5665 0 23.038 0C10.5094 0 0.353027 10.1409 0.353027 22.6504C0.353027 35.1599 10.5094 45.3009 23.038 45.3009Z" fill="white"/>
<mask id="mask0_37_8125" style="mask-type:luminance" maskUnits="userSpaceOnUse" x="7" y="7" width="32" height="32">
<path d="M37.7413 19.9939H23.3882V25.9361H31.65C30.8798 29.7112 27.6591 31.8784 23.3882 31.8784C18.3471 31.8784 14.2862 27.8237 14.2862 22.7902C14.2862 17.7568 18.3471 13.7021 23.3882 13.7021C25.5587 13.7021 27.5191 14.4711 29.0594 15.7295L33.5404 11.2553C30.8098 8.87839 27.3091 7.41031 23.3882 7.41031C14.8464 7.41031 7.98486 14.2614 7.98486 22.7902C7.98486 31.3191 14.8464 38.1702 23.3882 38.1702C31.0899 38.1702 38.0914 32.5775 38.0914 22.7902C38.0914 21.8814 37.9514 20.9027 37.7413 19.9939Z" fill="white"/>
</mask>
<g mask="url(#mask0_37_8125)">
<path d="M6.58447 31.8784V13.7021L18.4871 22.7902L6.58447 31.8784Z" fill="#FBBC05"/>
</g>
<mask id="mask1_37_8125" style="mask-type:luminance" maskUnits="userSpaceOnUse" x="7" y="7" width="32" height="32">
<path d="M37.7413 19.9939H23.3882V25.9361H31.65C30.8798 29.7112 27.6591 31.8784 23.3882 31.8784C18.3471 31.8784 14.2862 27.8237 14.2862 22.7902C14.2862 17.7568 18.3471 13.7021 23.3882 13.7021C25.5587 13.7021 27.5191 14.4711 29.0594 15.7295L33.5404 11.2553C30.8098 8.87839 27.3091 7.41031 23.3882 7.41031C14.8464 7.41031 7.98486 14.2614 7.98486 22.7902C7.98486 31.3191 14.8464 38.1702 23.3882 38.1702C31.0899 38.1702 38.0914 32.5775 38.0914 22.7902C38.0914 21.8814 37.9514 20.9027 37.7413 19.9939Z" fill="white"/>
</mask>
<g mask="url(#mask1_37_8125)">
<path d="M6.58447 13.7021L18.4871 22.7903L23.3881 18.5258L40.1918 15.7994V6.01215H6.58447V13.7021Z" fill="#EA4335"/>
</g>
<mask id="mask2_37_8125" style="mask-type:luminance" maskUnits="userSpaceOnUse" x="7" y="7" width="32" height="32">
<path d="M37.7413 19.9939H23.3882V25.9361H31.65C30.8798 29.7112 27.6591 31.8784 23.3882 31.8784C18.3471 31.8784 14.2862 27.8237 14.2862 22.7902C14.2862 17.7568 18.3471 13.7021 23.3882 13.7021C25.5587 13.7021 27.5191 14.4711 29.0594 15.7295L33.5404 11.2553C30.8098 8.87839 27.3091 7.41031 23.3882 7.41031C14.8464 7.41031 7.98486 14.2614 7.98486 22.7902C7.98486 31.3191 14.8464 38.1702 23.3882 38.1702C31.0899 38.1702 38.0914 32.5775 38.0914 22.7902C38.0914 21.8814 37.9514 20.9027 37.7413 19.9939Z" fill="white"/>
</mask>
<g mask="url(#mask2_37_8125)">
<path d="M6.58447 31.8784L27.589 15.7994L33.1202 16.4985L40.1918 6.01215V39.5684H6.58447V31.8784Z" fill="#34A853"/>
</g>
<mask id="mask3_37_8125" style="mask-type:luminance" maskUnits="userSpaceOnUse" x="7" y="7" width="32" height="32">
<path d="M37.7413 19.9939H23.3882V25.9361H31.65C30.8798 29.7112 27.6591 31.8784 23.3882 31.8784C18.3471 31.8784 14.2862 27.8237 14.2862 22.7902C14.2862 17.7568 18.3471 13.7021 23.3882 13.7021C25.5587 13.7021 27.5191 14.4711 29.0594 15.7295L33.5404 11.2553C30.8098 8.87839 27.3091 7.41031 23.3882 7.41031C14.8464 7.41031 7.98486 14.2614 7.98486 22.7902C7.98486 31.3191 14.8464 38.1702 23.3882 38.1702C31.0899 38.1702 38.0914 32.5775 38.0914 22.7902C38.0914 21.8814 37.9514 20.9027 37.7413 19.9939Z" fill="white"/>
</mask>
<g mask="url(#mask3_37_8125)">
<path d="M40.1919 39.5683L18.4871 22.7902L15.6865 20.693L40.1919 13.7021V39.5683Z" fill="#4285F4"/>
</g>
</svg>
