<svg width="32" height="32" viewBox="0 0 32 32" fill="none" xmlns="http://www.w3.org/2000/svg">
<path d="M15.9991 3.05176e-05C9.17659 3.05176e-05 3.35239 4.27173 1.0519 10.2857H3.52611C4.19725 8.82258 5.13018 7.47501 6.30239 6.30273C8.89259 3.71238 12.3363 2.28574 15.9991 2.28574C19.6624 2.28574 23.1065 3.71238 25.697 6.3028C28.2875 8.89322 29.7142 12.3371 29.7142 16C29.7142 19.6632 28.2875 23.1072 25.6971 25.6975C23.1066 28.2877 19.6624 29.7142 15.9991 29.7142C12.3362 29.7142 8.89245 28.2877 6.30232 25.6975C5.13003 24.5252 4.19711 23.1775 3.52582 21.7143H1.05176C3.35218 27.7286 9.17645 31.9999 15.9991 31.9999C24.8358 31.9999 31.9999 24.8368 31.9999 16C31.9999 7.16415 24.8358 3.05176e-05 15.9991 3.05176e-05Z" fill="#F0F0F0"/>
<path d="M12.4902 20.8488L14.1064 22.465L20.5714 16L14.1064 9.535L12.4901 11.1513L16.196 14.8571H0V17.1428H16.196L12.4902 20.8488Z" fill="#F0F0F0"/>
</svg>
